<?xml version="1.0" encoding="UTF-8" standalone="no"?>
<!-- Created with Inkscape (http://www.inkscape.org/) -->

<svg
   xmlns:dc="http://purl.org/dc/elements/1.1/"
   xmlns:cc="http://creativecommons.org/ns#"
   xmlns:rdf="http://www.w3.org/1999/02/22-rdf-syntax-ns#"
   xmlns:svg="http://www.w3.org/2000/svg"
   xmlns="http://www.w3.org/2000/svg"
   xmlns:sodipodi="http://sodipodi.sourceforge.net/DTD/sodipodi-0.dtd"
   xmlns:inkscape="http://www.inkscape.org/namespaces/inkscape"
   width="32"
   height="32"
   viewBox="-9 -9 32 32"
   id="svg2"
   version="1.1"
   inkscape:version="0.91 r13725"
   sodipodi:docname="icon-researchgate.svg">
  <defs
     id="defs4" />
  <sodipodi:namedview
     id="base"
     pagecolor="#ffffff"
     bordercolor="#666666"
     borderopacity="1.0"
     inkscape:pageopacity="0.0"
     inkscape:pageshadow="2"
     inkscape:zoom="7.9195959"
     inkscape:cx="-16.336921"
     inkscape:cy="9.8984743"
     inkscape:document-units="px"
     inkscape:current-layer="g4437"
     showgrid="false"
     units="px"
     inkscape:window-width="1366"
     inkscape:window-height="671"
     inkscape:window-x="0"
     inkscape:window-y="1"
     inkscape:window-maximized="1" />
  <metadata
     id="metadata7">
    <rdf:RDF>
      <cc:Work
         rdf:about="">
        <dc:format>image/svg+xml</dc:format>
        <dc:type
           rdf:resource="http://purl.org/dc/dcmitype/StillImage" />
        <dc:title />
      </cc:Work>
    </rdf:RDF>
  </metadata>
  <g
     inkscape:label="Layer 1"
     inkscape:groupmode="layer"
     id="layer1"
     transform="translate(0,-1036.3622)">
    <g
       id="g4431"
       transform="translate(668.57143,82.857143)">
      <g
         id="g4437"
         transform="matrix(0.03168317,0,0,0.03168317,-648.26025,947.17279)">
        <g
           id="g4137">
          <rect
             ry="93.043083"
             y="199.86217"
             x="-641.07159"
             height="504.99997"
             width="504.99997"
             id="rect4501"
             style="opacity:1;fill:#000000;fill-opacity:1;stroke:none;stroke-width:2;stroke-miterlimit:4;stroke-dasharray:none;stroke-opacity:1" />
          <path
             style="fill:#ffffff;fill-opacity:1"
             d="m -355.56304,671.11861 c -20.58149,-5.17957 -36.24348,-15.93029 -52.42901,-35.9884 -14.3596,-17.79529 -46.93056,-66.44735 -62.66466,-93.60378 l -12.01418,-20.736 -18.7508,-1.03633 c -12.05078,-0.66605 -19.581,-0.38762 -21.07425,0.77921 -1.88089,1.46978 -2.20236,11.86979 -1.68776,54.60435 0.59558,49.46199 0.8679,53.29676 4.3209,60.849 2.02688,4.43312 5.50796,9.05292 7.73577,10.26626 2.22778,1.2133 11.43773,3.41822 20.46653,4.89978 l 16.416,2.69373 0.53136,7.344 c 0.29224,4.0392 -0.0966,7.37032 -0.864,7.40244 -0.76746,0.0322 -30.55536,0.1074 -66.19536,0.16745 l -64.8,0.10896 0,-7.51152 0,-7.51152 10.368,-2.22826 c 15.4074,-3.31128 21.94918,-7.11009 25.92,-15.05174 3.34577,-6.69156 3.47119,-10.87478 3.93241,-131.16504 0.41236,-107.54953 0.12,-125.47927 -2.17532,-133.37464 -3.25253,-11.18832 -8.22665,-15.40282 -21.30259,-18.04933 -16.45899,-3.3311 -17.6065,-4.11307 -17.6065,-11.99781 0,-3.82198 0.80675,-6.94906 1.79279,-6.94906 0.98602,0 38.11642,-0.1944 82.512,-0.432 73.79485,-0.39493 81.68274,-0.16054 91.95121,2.73203 19.08775,5.37698 32.81932,12.94355 44.16757,24.33789 16.02594,16.09106 23.16594,33.96968 23.20394,58.10303 0.0406,25.76537 -8.94084,46.78063 -28.49151,66.66636 -9.73551,9.90238 -15.20406,13.78032 -28.02295,19.872 -8.75983,4.16279 -15.95263,8.37609 -15.984,9.36291 -0.20027,6.29848 39.85158,64.80169 64.89872,94.79673 23.28908,27.88972 37.92731,39.05489 56.86823,43.37573 8.19251,1.86888 8.66691,2.28562 9.15937,8.04605 0.34818,4.07258 -0.43729,6.86904 -2.38292,8.48379 -4.17193,3.46236 -35.08474,3.94332 -47.79899,0.74364 z M -461.48091,491.35758 c 21.3175,-5.5525 36.78351,-18.03808 45.57524,-36.79248 4.17876,-8.9141 4.59717,-11.69728 4.59717,-30.57899 0,-19.97017 -0.21824,-21.21565 -5.65149,-32.25216 -9.32273,-18.93715 -24.0748,-28.81117 -48.74922,-32.62939 -13.50588,-2.08995 -52.89077,-1.59192 -56.62512,0.71602 -3.05768,1.88974 -3.13906,129.05776 -0.0845,132.11225 3.1747,3.17473 48.17167,2.74995 60.93798,-0.57525 z m 179.77241,-84.4403 c -10.77163,-3.40664 -16.6832,-7.05824 -24.5363,-15.15622 -14.38686,-14.83556 -19.5277,-34.54692 -19.5277,-74.87463 0,-41.09689 5.34084,-60.88746 20.43172,-75.71021 9.67071,-9.49887 20.13527,-14.41936 35.05076,-16.48106 27.63114,-3.81934 52.46999,5.70358 65.26613,25.02224 7.4526,11.25137 7.04664,13.31805 -3.47503,17.69066 -11.26337,4.68084 -14.71015,4.64043 -17.19612,-0.20163 -10.04992,-19.57471 -36.72088,-25.82691 -54.00643,-12.66014 -12.01268,9.15029 -15.25506,17.13305 -16.812,41.39102 -1.77024,27.58092 0.34009,60.50933 4.38956,68.49231 6.84356,13.4912 16.91574,19.43978 32.80198,19.37274 12.26427,-0.0518 18.97321,-2.32265 25.71972,-8.70585 6.85585,-6.48667 9.36814,-11.97242 11.44938,-25.00031 2.64404,-16.55108 2.42055,-16.79377 -15.46496,-16.79377 -18.06132,0 -19.44583,-1.0452 -18.69786,-14.11571 l 0.52715,-9.21229 30.62913,-0.47168 30.6291,-0.47171 1.15767,4.61255 c 1.99221,7.93759 -0.69251,42.32397 -4.17907,53.52632 -6.27028,20.14647 -19.83152,33.90864 -39.03228,39.61067 -10.41733,3.0936 -35.53426,3.1697 -45.12455,0.13666 z"
             id="path4433"
             inkscape:connector-curvature="0" />
        </g>
      </g>
    </g>
  </g>
</svg>
