<?xml version="1.0" encoding="UTF-8" standalone="no"?>
<!-- Generator: Adobe Illustrator 16.0.0, SVG Export Plug-In . SVG Version: 6.00 Build 0)  -->

<svg
   xmlns:dc="http://purl.org/dc/elements/1.1/"
   xmlns:cc="http://creativecommons.org/ns#"
   xmlns:rdf="http://www.w3.org/1999/02/22-rdf-syntax-ns#"
   xmlns:svg="http://www.w3.org/2000/svg"
   xmlns="http://www.w3.org/2000/svg"
   xmlns:sodipodi="http://sodipodi.sourceforge.net/DTD/sodipodi-0.dtd"
   xmlns:inkscape="http://www.inkscape.org/namespaces/inkscape"
   version="1.1"
   id="Capa_1"
   x="0px"
   y="0px"
   width="16"
   height="16"
   viewBox="0 0 16 16"
   xml:space="preserve"
   inkscape:version="0.91 r13725"
   sodipodi:docname="icon-linkedin.svg"><metadata
     id="metadata40"><rdf:RDF><cc:Work
         rdf:about=""><dc:format>image/svg+xml</dc:format><dc:type
           rdf:resource="http://purl.org/dc/dcmitype/StillImage" /><dc:title /></cc:Work></rdf:RDF></metadata><defs
     id="defs38" /><sodipodi:namedview
     pagecolor="#ffffff"
     bordercolor="#666666"
     borderopacity="1"
     objecttolerance="10"
     gridtolerance="10"
     guidetolerance="10"
     inkscape:pageopacity="0"
     inkscape:pageshadow="2"
     inkscape:window-width="1366"
     inkscape:window-height="671"
     id="namedview36"
     showgrid="false"
     inkscape:zoom="8"
     inkscape:cx="-27.789202"
     inkscape:cy="19.081005"
     inkscape:window-x="0"
     inkscape:window-y="1"
     inkscape:window-maximized="1"
     inkscape:current-layer="Capa_1" /><rect
     style="opacity:1;fill:#828282;fill-opacity:1;stroke:none;stroke-width:2;stroke-miterlimit:4;stroke-dasharray:none;stroke-opacity:1"
     id="rect4251"
     width="16"
     height="16"
     x="0"
     y="0"
     ry="2.4427481" /><g
     id="g3"
     transform="matrix(0.03138681,0,0,0.03138681,1.2499999,1.2499843)"
     style="opacity:1;fill:#ffffff;fill-opacity:1"><path
       id="LinkedIn"
       d="m 430.117,261.543 0,159.017 -92.188,0 0,-148.367 c 0,-37.271 -13.334,-62.707 -46.703,-62.707 -25.473,0 -40.632,17.142 -47.301,33.724 -2.432,5.928 -3.058,14.179 -3.058,22.477 l 0,154.873 -92.219,0 c 0,0 1.242,-251.285 0,-277.32 l 92.21,0 0,39.309 c -0.187,0.294 -0.43,0.611 -0.606,0.896 l 0.606,0 0,-0.896 c 12.251,-18.869 34.13,-45.824 83.102,-45.824 60.673,-0.001 106.157,39.636 106.157,124.818 z M 52.183,9.558 C 20.635,9.558 0,30.251 0,57.463 c 0,26.619 20.038,47.94 50.959,47.94 l 0.616,0 c 32.159,0 52.159,-21.317 52.159,-47.94 C 103.128,30.251 83.734,9.558 52.183,9.558 Z M 5.477,420.56 l 92.184,0 0,-277.32 -92.184,0 0,277.32 z"
       inkscape:connector-curvature="0"
       style="fill:#ffffff;fill-opacity:1" /></g><g
     id="g6"
     transform="translate(0,-414.117)" /><g
     id="g8"
     transform="translate(0,-414.117)" /><g
     id="g10"
     transform="translate(0,-414.117)" /><g
     id="g12"
     transform="translate(0,-414.117)" /><g
     id="g14"
     transform="translate(0,-414.117)" /><g
     id="g16"
     transform="translate(0,-414.117)" /><g
     id="g18"
     transform="translate(0,-414.117)" /><g
     id="g20"
     transform="translate(0,-414.117)" /><g
     id="g22"
     transform="translate(0,-414.117)" /><g
     id="g24"
     transform="translate(0,-414.117)" /><g
     id="g26"
     transform="translate(0,-414.117)" /><g
     id="g28"
     transform="translate(0,-414.117)" /><g
     id="g30"
     transform="translate(0,-414.117)" /><g
     id="g32"
     transform="translate(0,-414.117)" /><g
     id="g34"
     transform="translate(0,-414.117)" /></svg>